<svg id="svg2" xmlns="http://www.w3.org/2000/svg" xmlns:xlink="http://www.w3.org/1999/xlink" viewBox="0 0 360.51 133.57"><defs><style>.cls-1{fill:none;}.cls-2{fill:#fff;}.cls-2,.cls-3,.cls-4{fill-rule:evenodd;}.cls-3{fill:#CCC;}.cls-4{fill:#CCC;}.cls-5{clip-path:url(#clip-path);}.cls-6{clip-path:url(#clip-path-2);}.cls-7{clip-path:url(#clip-path-3);}</style><clipPath id="clip-path" transform="translate(-1.43 -2.21)"><rect class="cls-1" x="1035.68" y="233.4" width="153.3" height="17.4"/></clipPath><clipPath id="clip-path-2" transform="translate(-1.43 -2.21)"><rect class="cls-1" x="970.39" y="-79.73" width="990" height="765"/></clipPath><clipPath id="clip-path-3" transform="translate(-1.43 -2.21)"><polygon class="cls-1" points="1191.08 250.8 1191.08 233.4 1905.91 233.4 1905.91 250.8 1191.08 250.8 1191.08 250.8"/></clipPath></defs><title>AEP</title><g id="layer1"><g id="g2846"><path id="path2848" class="cls-2" d="M5.85,59.13l-1-.37.53-3.23,12.6-28.42L51.08,27l33.15-.15L92.33,30l.67,3.6.08,3.22-.83,5.93L87.23,59l-14,.53L39.6,59.36,5.85,59.13" transform="translate(-1.43 -2.21)"/></g><g id="g2850"><path id="path2852" class="cls-3" d="M356.1,40.38h.9c6.73-1.22,6.54-10.2-.3-11h-1.27l-.23.08a5.52,5.52,0,0,0-4.87,4.27l-.08.53v.6c-.15,2.47,1.86,4.54,4.05,5.25l.6.15.53.07Zm0-10.12h.53l.45.15a4.5,4.5,0,0,1,0,8.92l-.45.08-.53.07c-5.87-.2-6.79-7.71-1.05-9.07l.6-.15Zm1,4.95h.3l.3-.15.3-.08.15-.07.08-.15.22-.23.3-.6v-.3l.08-.15-.08-.22V33l-.07-.15c-.2-.72-1-.92-1.65-1.05h-3.23v6.23h.9V35.21H356l1.65,2.85h1.05Zm-.67-2.48.52.08h.23c.6.22.71.21.67.9v.15l-.07.07-.15.08-.15.15h-.38l-.3.07h-2.1v-1.5h1.73" transform="translate(-1.43 -2.21)"/></g><path id="path2856" class="cls-4" d="M92.78,36.71l-.15-1.28-.23-1C91.24,32.17,91,31.6,89,30.11l-.9-.68-1-.6-1-.52-1.28-.38-1.12-.22-1.5-.23H18.38L5.4,55.53l-.15.3L7.58,38.58,12.53,2.21h85l-4.72,34.5" transform="translate(-1.43 -2.21)"/><g id="g2858"><path id="path2860" class="cls-4" d="M17.63,55.16,16.2,59H4.88L1.43,84.71h85.2l5.7-42.45-.3,1a11.1,11.1,0,0,1-10,6.45H75.23L73.88,59H26.18L26,55.16H17.63" transform="translate(-1.43 -2.21)"/></g><g id="g2862"><path id="path2864" class="cls-4" d="M61.8,35.81H52.05l-.52,3.37h9.82l-1.12,8.4H50.48L50,50.66h9.82L58.73,59l3,3.75,5-37L63,27.48l-1.2,8.33" transform="translate(-1.43 -2.21)"/></g><g id="g2866"><path id="path2868" class="cls-4" d="M77.18,35.66l-.75,5.85H79.2c3-.34,3.69-5.43.3-5.85H77.18" transform="translate(-1.43 -2.21)"/></g><g id="g2870"><path id="path2872" class="cls-4" d="M20.25,47.73h5l-.83-10.2-4.2,10.2" transform="translate(-1.43 -2.21)"/></g><g id="g2874"><path id="path2876" class="cls-4" d="M37.35,55.83l-2.1-15.22-3-19.73L41,27.48,39.3,40.83l-1.95,15" transform="translate(-1.43 -2.21)"/></g><g id="g2878"><path id="path2880" class="cls-3" d="M101,135h10.65l1.35-9.23h6.75c6-.54,9.9-5,10.5-10.87l.07-.68v-.67c.16-5.77-4-8.89-9.45-9.15l-1.27-.08H105.68Zm14-22.28h1c6-.65,4,6.07-.75,5.33h-1.12l.82-5.33" transform="translate(-1.43 -2.21)"/></g><g id="g2882"><path id="path2884" class="cls-3" d="M147.23,103.83l-.9.08h-.9l-.83.07A19.07,19.07,0,0,0,128,119.81l-.15,1v.9c-.56,7.7,4.61,13,12,13.95l.83.08.9.07h1.72c8.26-.37,16.09-5.78,17.85-14.1l.3-.9.08-1c1.37-8.3-3.54-14.77-11.85-15.83l-.83-.07h-.75ZM145.58,114l.67.07h.38l.3.08c2.81.94,3.87,3,3.52,5.92l-.15.68-.15.6a7.06,7.06,0,0,1-4.57,4.42l-.53.15-.6.15h-.6c-7.32-.21-5.77-10.61.53-11.92l1.2-.15" transform="translate(-1.43 -2.21)"/></g><g id="g2886"><path id="path2888" class="cls-3" d="M161.4,104.28,167.33,135h9.3l4.8-12,.37-.6.15-.6.3-1.13.23-1.2.37-1.12h.3l.9,16.65h9.6l15.23-30.68H197.55l-5,13-.53,1.27-.37,1.35-.68,2.7h-.22l-1.43-18.3h-8.4l-5,12.68-.6,1.42-.45,1.35-.75,2.85h-.23l-1.12-18.3H161.4" transform="translate(-1.43 -2.21)"/></g><g id="g2890"><path id="path2892" class="cls-3" d="M205.88,135h20.77l1.28-8.4h-9.68l.53-3h8.47l1.2-8H220l.37-2.93h9.38l1.35-8.4H210.53L205.88,135" transform="translate(-1.43 -2.21)"/></g><g id="g2894"><path id="path2896" class="cls-3" d="M230,135h11l1.5-9.9h.23l3.3,9.9h12.9l-5.18-10-.07-.3-.23-.22-.22-.3-.23-.23-.45-.37-.37-.38V123l.9-.3.67-.3c4.57-1.28,6.18-6.4,5.78-10.65l-.08-.68-.15-.52c-1.28-4.68-6-6.12-10.42-6.23h-14.1Zm14.4-22.28h1.5c1.1,0,2.64.49,2.48,1.88v.75c-.36,1.81-1.44,2.53-3.3,2.55h-1.5l.82-5.18" transform="translate(-1.43 -2.21)"/></g><g id="g2898"><path id="path2900" class="cls-3" d="M122,55.68h8.32l.45,3.83h11.63l-6.15-30.83H124.13L109,59.51H120.6Zm3.07-7.35L128.55,39h.38v2l.07.9.08,1,.45,5.47H125.1" transform="translate(-1.43 -2.21)"/></g><g id="g2902"><path id="path2904" class="cls-3" d="M140.93,59.51h10.8L155,46.38l.9-3.75h.37l-.07,1v1l.07,1.88,2,13h6.45l6.6-13.88.3-.67.3-.75.6-1.58h.15l-1,16.88h10.8l-.3-30.83h-11.4l-5.33,12.15-.75,2-.6,2.1h-.22l-1.8-16.2H150.6l-9.67,30.83" transform="translate(-1.43 -2.21)"/></g><g id="g2906"><path id="path2908" class="cls-3" d="M185.85,59.51H206.4l1.28-8.4h-9.53l.38-3.08H207l1.2-8h-8.47l.45-2.93h9.3l1.27-8.4H190.43l-4.58,30.83" transform="translate(-1.43 -2.21)"/></g><g id="g2910"><path id="path2912" class="cls-3" d="M209.63,59.51h10.8l1.57-9.9h.23l3.37,9.9h12.75l-5.1-10-.15-.3-.3-.37-.15-.23-.22-.22L232,48l-.38-.37.08-.23.75-.3c5.32-1.69,6.81-5.86,6.45-11l-.08-.6-.15-.53c-.8-4.51-6.32-6.38-10.35-6.3h-14Zm14.25-22.43h1.57l.68.08.22.07.38.08.22.07.23.15.37.38.3.45v.3l.08.3v.37l-.08.38c.07,1.73-1.74,2.69-3.3,2.62h-1.5l.83-5.25" transform="translate(-1.43 -2.21)"/></g><g id="g2914"><path id="path2916" class="cls-3" d="M240.53,59.51H251.4L256,28.68h-10.8l-4.65,30.83" transform="translate(-1.43 -2.21)"/></g><g id="g2918"><path id="path2920" class="cls-3" d="M280.88,29.21l-1.8-.6c-10.63-3.24-21.79,4.13-23.85,14.77l-.15.75-.15.83c-.77,12.55,9.54,17.06,20.62,13.95l.38-.15.37-.15,2.18-11.55-.75.6-.45.3c-4,3.15-11,2.72-10.95-3.45v-.6l.15-.68a7.12,7.12,0,0,1,11.7-3.52l.6.67.6.6,1.5-11.77" transform="translate(-1.43 -2.21)"/></g><g id="g2922"><path id="path2924" class="cls-3" d="M290.25,55.68h8.33l.45,3.83h11.62L304.5,28.68H292.28L277.2,59.51h11.63Zm3.08-7.35L296.78,39h.45v3.9l.52,5.47h-4.42" transform="translate(-1.43 -2.21)"/></g><g id="g2926"><path id="path2928" class="cls-3" d="M312.9,59.51h10.58l1.5-10a20.07,20.07,0,0,0,.3-4.65v-1.5h.3l7.27,16.13h10.5l4.73-30.83H337.5l-1.35,9.23a24.44,24.44,0,0,0-.37,5.92l.07,2h-.3l-7.35-17.1H317.63L312.9,59.51" transform="translate(-1.43 -2.21)"/></g><g id="g2930"><path id="path2932" class="cls-3" d="M105.45,97.23h21l1.28-8.4H118l.52-3.15H127l1.27-8.1H119.7l.45-2.92h9.38l1.27-8.55H110.18l-4.73,31.12" transform="translate(-1.43 -2.21)"/></g><g id="g2934"><path id="path2936" class="cls-3" d="M129.6,97.23h20.78l1.5-9.9H142.5l3.15-21.22H134.4l-4.8,31.12" transform="translate(-1.43 -2.21)"/></g><g id="g2938"><path id="path2940" class="cls-3" d="M153,97.23h20.93l1.27-8.4h-9.67l.45-3.15h8.55l1.27-8.1h-8.62l.45-2.92h9.3l1.42-8.55H157.73L153,97.23" transform="translate(-1.43 -2.21)"/></g><g id="g2942"><path id="path2944" class="cls-3" d="M202.8,66.86l-.82-.23-.9-.3c-10.9-3-21.28,3.91-23.63,14.7l-.3,1.65c-.71,12.46,9.48,17.11,20.4,13.88l.45-.15.38-.15,2-11.55-1.12.9c-4.05,3.38-11,2.57-10.88-3.45l.15-1.2c1.52-5.2,7.46-7.25,11.55-3.45l.68.52.52.6,1.5-11.77" transform="translate(-1.43 -2.21)"/></g><g id="g2946"><path id="path2948" class="cls-3" d="M204,76.23l6.08-.3-3.15,21.3h10.95L221,75.93l5.92.3,1.5-10.12H205.58L204,76.23" transform="translate(-1.43 -2.21)"/></g><g id="g2950"><path id="path2952" class="cls-3" d="M226.65,97.23h10.73l1.5-10H239l3.37,10H255l-4.95-10.12a8.57,8.57,0,0,0-1.65-1.88V85l.9-.23.68-.37c4.81-1.77,5.91-6.25,5.62-10.88l-.07-.52-.15-.6c-1-4.7-5.91-6.31-10.2-6.3h-14Zm14.1-22.65h.83l.67.08c1.1-.14,2.58.51,2.48,1.8v.82c-.39,1.87-1.51,2.42-3.3,2.55h-1.5l.82-5.25" transform="translate(-1.43 -2.21)"/></g><g id="g2954"><path id="path2956" class="cls-3" d="M257.18,97.23H268l4.65-31.12H261.75l-4.57,31.12" transform="translate(-1.43 -2.21)"/></g><g id="g2958"><path id="path2960" class="cls-3" d="M297.53,66.86l-.83-.23-.9-.3c-10.94-3-21.22,3.89-23.62,14.7l-.3,1.65C271.1,95,281.3,99.83,292.2,96.56l.53-.15.37-.15,2-11.55-1.13.9c-4,3.39-11,2.56-10.87-3.45l.15-1.2c1.49-5.16,7.44-7.27,11.55-3.45l.6.52.6.6,1.5-11.77" transform="translate(-1.43 -2.21)"/></g></g></svg>