<svg id="Layer_1" data-name="Layer 1" xmlns="http://www.w3.org/2000/svg" xmlns:xlink="http://www.w3.org/1999/xlink" viewBox="0 0 313.17 119.03"><defs><style>.cls-1{fill:none;}.cls-2,.cls-4{fill:#CCC;}.cls-3{clip-path:url(#clip-path);}.cls-4{fill-rule:evenodd;}</style><clipPath id="clip-path" transform="translate(0 -0.97)"><rect class="cls-1" x="0.06" y="0.97" width="313.11" height="118.97"/></clipPath></defs><title>Chassix_1c_Logo.eps</title><path class="cls-2" d="M89.52,76.74q-4.29-4.41-12.45-4.41A23.86,23.86,0,0,0,68.35,74a35.54,35.54,0,0,0-6.68,3.54h0a17.59,17.59,0,0,1-1.54.88V59.06a25.54,25.54,0,0,1-8.48,4.16v55.49h8.48V85A39.38,39.38,0,0,1,67.4,81.1a19.41,19.41,0,0,1,7.27-1.53,15.44,15.44,0,0,1,5.51.83,6.74,6.74,0,0,1,3.25,2.52,9.89,9.89,0,0,1,1.49,4.27A41,41,0,0,1,85.33,93v25.69h8.48V89.43c0-5.53-1.43-9.75-4.29-12.69" transform="translate(0 -0.97)"/><path class="cls-2" d="M237.3,77.8v40.91h8.48V74a25.84,25.84,0,0,1-8.48,3.82" transform="translate(0 -0.97)"/><g class="cls-3"><polyline class="cls-2" points="281.79 95.09 302.1 72.62 291.35 72.62 276.8 89.5 262.12 72.62 251.05 72.62 271.31 95.18 271.36 95.18 251.05 117.65 261.8 117.65 276.35 100.77 291.03 117.65 302.1 117.65 281.84 95.09 281.79 95.09"/><path class="cls-2" d="M132.23,114.44l.08,0,.12-.07h0c1.85-.94,5.54.89,9.11,4.34V88.09a16.19,16.19,0,0,0-1.48-7.31A12.31,12.31,0,0,0,135.72,76a19.05,19.05,0,0,0-6.84-2.68,47.41,47.41,0,0,0-9.27-.8,61,61,0,0,0-9.25.73q-4.69.73-7.18,1.34v7.72h.45A63.38,63.38,0,0,1,112.12,80a39.5,39.5,0,0,1,7.45-.79,40.89,40.89,0,0,1,5.28.33,13,13,0,0,1,4.32,1.25,7.07,7.07,0,0,1,2.92,2.67,8.29,8.29,0,0,1,1,4.28V88.9q-7.4.31-13.85,1a41.52,41.52,0,0,0-11.06,2.46,16.23,16.23,0,0,0-7,5,13.12,13.12,0,0,0-2.46,8.29,12.93,12.93,0,0,0,4.73,10.31A17.22,17.22,0,0,0,115,120a29.26,29.26,0,0,0,6.46-.63,27.11,27.11,0,0,0,4.87-1.55,21.62,21.62,0,0,0,3.72-2c.86-.56,1.55-1,2.16-1.37l0,0m-6-3.09a21,21,0,0,1-8.16,1.55c-3.59,0-6.25-.66-8-2a7.7,7.7,0,0,1-.37-11.23,14.21,14.21,0,0,1,5.92-2.89A52.39,52.39,0,0,1,124,95.64q5.25-.39,9.13-.6V107.6a37.74,37.74,0,0,1-6.86,3.75" transform="translate(0 -0.97)"/><path class="cls-2" d="M36.64,104.17a14,14,0,0,1-2.72,4.91c-2.58,2.89-6.12,4.35-10.63,4.35S15.15,112,12.59,109s-3.84-7.21-3.84-12.87q0-8.76,3.82-13t10.72-4.26q6.8,0,10.64,4.26a13.35,13.35,0,0,1,2.74,5L45.16,87a20.65,20.65,0,0,0-4.95-8.26q-6.32-6.4-16.92-6.41t-17,6.41Q0,85.15,0,96.17t6.3,17.42q6.29,6.38,17,6.38t16.92-6.38a20.56,20.56,0,0,0,5-8.28l-8.53-1.14" transform="translate(0 -0.97)"/><path class="cls-2" d="M187.9,105.85q0,6.2-5.84,10.18t-15.94,4a43.16,43.16,0,0,1-10.51-1.2,50.82,50.82,0,0,1-8-2.61v-8.56h.46A36.74,36.74,0,0,0,157.2,112a31.74,31.74,0,0,0,9.65,1.6c3.81,0,6.81-.54,9-1.62a5.36,5.36,0,0,0,3.24-5.11,4.84,4.84,0,0,0-1.75-4c-1.18-.93-3.42-1.71-6.75-2.36-1.22-.24-2.83-.52-4.82-.85s-3.78-.68-5.42-1q-6.78-1.59-9.62-4.65a10.62,10.62,0,0,1-2.84-7.52,11.12,11.12,0,0,1,1.31-5.27,13.15,13.15,0,0,1,4-4.42,20.17,20.17,0,0,1,6.58-3,33.36,33.36,0,0,1,8.93-1.12,45.52,45.52,0,0,1,9.35,1,39,39,0,0,1,7.87,2.42v8.15h-.46a33.12,33.12,0,0,0-8.08-3.63A31.18,31.18,0,0,0,168,79a18.14,18.14,0,0,0-8,1.6,5.11,5.11,0,0,0-3.28,4.77,4.82,4.82,0,0,0,2,4.21A16.48,16.48,0,0,0,165,91.85c1.6.33,3.39.65,5.38,1s3.64.62,5,.89q6,1.22,9.32,4.18a10.25,10.25,0,0,1,3.28,7.95" transform="translate(0 -0.97)"/><path class="cls-2" d="M232.14,105.85c0,4.13-2,7.53-5.84,10.18s-9.21,4-15.94,4a43.16,43.16,0,0,1-10.51-1.2,51,51,0,0,1-8-2.61v-8.56h.46a37,37,0,0,0,9.14,4.32,31.74,31.74,0,0,0,9.65,1.6,20.28,20.28,0,0,0,8.95-1.62,5.35,5.35,0,0,0,3.23-5.11,4.81,4.81,0,0,0-1.75-4c-1.17-.93-3.41-1.71-6.74-2.36-1.23-.24-2.84-.52-4.82-.85s-3.79-.68-5.42-1c-4.53-1.06-7.73-2.61-9.63-4.65a10.66,10.66,0,0,1-2.84-7.52,11,11,0,0,1,1.32-5.27,13.15,13.15,0,0,1,4-4.42,20.17,20.17,0,0,1,6.58-3,33.31,33.31,0,0,1,8.93-1.12,45.67,45.67,0,0,1,9.35,1,38.94,38.94,0,0,1,7.86,2.42v8.15h-.46a32.77,32.77,0,0,0-8.08-3.63A31.12,31.12,0,0,0,212.24,79a18.16,18.16,0,0,0-8,1.6,5.11,5.11,0,0,0-3.27,4.77,4.84,4.84,0,0,0,2,4.21,16.54,16.54,0,0,0,6.28,2.31c1.6.33,3.39.65,5.37,1s3.64.62,5,.89q6,1.22,9.31,4.18a10.25,10.25,0,0,1,3.29,7.95" transform="translate(0 -0.97)"/></g><path class="cls-4" d="M245.82,65.71c.64,1.51-.73,3.53-3.06,4.53s-4.74.57-5.38-.94.72-3.53,3.06-4.52,4.74-.57,5.38.93" transform="translate(0 -0.97)"/><path class="cls-2" d="M300.51,3.11c-20.92,20.24-42.2,37.58-61.28,50.53A78.62,78.62,0,0,1,252.1,48.1c22.54-7.45,44.88-4.64,49.9,6.28a10.56,10.56,0,0,1,.71,2.07V1c-.72.72-1.46,1.43-2.2,2.14" transform="translate(0 -0.97)"/><path class="cls-2" d="M309.63,111.7a3.54,3.54,0,1,1-3.54,3.53,3.53,3.53,0,0,1,3.54-3.53m0,6.52a3,3,0,1,0-2.93-3A3,3,0,0,0,309.63,118.22Zm-1.28-5.07h1.54c.91,0,1.37.39,1.37,1.17a1.11,1.11,0,0,1-1,1.18l1.16,1.82h-.69l-1.14-1.81H309v1.81h-.6ZM309,115h.72c.58,0,1-.09,1-.64s-.38-.62-.92-.62H309Z" transform="translate(0 -0.97)"/></svg>